# xmcd
#
# Track frame offsets:
#	150
#	23454
#	41194
#	71187
#	84960
#	109216
#	132588
#	151711
#	173292
#	194301
#	205527
#	223466
#
# Disc length: 3281 seconds
#
# Revision: 0
# Processed by: cddbd v1.4PL0 Copyright (c) Steve Scherf et al.
# Submitted via: EasyCDDAExtractor 4.6.0.1
#
DISCID=a00ccf0c
DTITLE=Billy Watson and His International Silver String Submarine Band - Billy
DTITLE=Watson and The Internation Silver String Submarine Band
DYEAR=1998
DGENRE=Blues
TTITLE0=I Outta Be Gone
TTITLE1=Born In Chicago
TTITLE2=Lonesome Cabin
TTITLE3=Tribute to George Smith
TTITLE4=Funky Chicken
TTITLE5=Hep Cat Instrumental
TTITLE6=Pee Wee's Playhouse
TTITLE7=I Want To Be
TTITLE8=Seeing Double
TTITLE9=Mike Fright
TTITLE10=Too Many Guys
TTITLE11=You Know You're Wrong
EXTD=
EXTT0=
EXTT1=
EXTT2=
EXTT3=
EXTT4=
EXTT5=
EXTT6=
EXTT7=
EXTT8=
EXTT9=
EXTT10=
EXTT11=
PLAYORDER=
